<svg height="131" viewBox="0 0 98 131" width="98" xmlns="http://www.w3.org/2000/svg"><path d="m9.38242503 77.4043505c15.49191107 0 22.25598497 4.7859674 25.52892397 21.1017652l.2511564 1.2550663c3.9603071 19.781317 6.0738514 29.907601 6.340633 30.378855-4.1922644.570674-8.5541846.859963-13.0636009.859963h-28.4395375v-53.5956495zm46.79492207 49.3561225c-4.3203077 1.448919-8.9043381 2.533886-13.7174903 3.243403 4.889847-.817027 9.3217892-1.853688 13.2962223-3.110097zm-23.9724284-126.75986403c40.0319471 0 65.7950813 23.90788283 65.7950813 65.40090263 0 26.779829-11.7450732 46.1298784-30.8852803 56.6044994.5577666-.324839 1.0992077-.657381 1.6246137-.997624l-4.1533378-17.49876c-4.1457227-18.7087815-11.7825803-28.0631722-30.1110385-31.1087878 26.8380995-4.3508795 37.7478961-19.7965014 37.7478961-35.6772113 0-21.4228363-16.2637842-34.73807838-45.3895032-36.72362562zm-17.8039873 10.83528643c20.2922216 0 29.8928426 9.3543907 29.8928426 27.1929963 0 15.8807099-8.9460332 28.4982602-31.63841 28.4982602h-12.655364v-55.6912565z"/></svg>